<svg xmlns="http://www.w3.org/2000/svg" height="12" id="S_Actions_18_N" viewBox="0 0 18 18" width="12">
  <defs>
    <style>
      .fill {
        fill: #AFB1B3;
      }

      
    </style>
  </defs>
  <rect id="Canvas" fill="#AFB1B3" opacity="0" width="14" height="14" /><path class="fill" d="M12.768,10.669l-1.6,1.606,4.392,4.392a.683.683,0,0,0,.965,0l.64-.64a.683.683,0,0,0,0-.965Z" />
  <path class="fill" d="M3.329,9.766l.726-.727c.267-.266-.011-.643-.011-.643l.746-.72a.681.681,0,0,0,.958-.006l.406-.406.781.781,1.6-1.6-.781-.78L8.023,5.4a.683.683,0,0,0,0-.965l-.32-.32s.942-1.058,1.14-1.256c.832-.832,2.675-.3,2.76-.722S7.512.127,5.225,2.414l-2.38,2.38a.682.682,0,0,0,0,.966l.161.155L2.3,6.652a.455.455,0,0,0-.653-.02l-.726.727a.341.341,0,0,0,0,.482L2.847,9.766A.341.341,0,0,0,3.329,9.766Z" />
  <path class="fill" d="M5.521,15.261c-.787.283-1.771.639-2.45.882l.877-2.45Zm9.1-13.183L3.431,13.268a.555.555,0,0,0-.132.207L2.237,16.407a.42.42,0,0,0,.551.555l2.947-1.049a.579.579,0,0,0,.21-.134L17.132,4.58a.48.48,0,0,0,.044-.674L15.293,2.033A.479.479,0,0,0,14.621,2.078Z" />
  </svg>